Coordinates
version=1
nRows=8
nColumns=36
inDegrees=yes

Units are S.I. units (second, meters, Newtons, ...)
If the header above contains a line with 'inDegrees', this indicates whether rotational values are in degrees (yes) or radians (no).

endheader
time	pelvis_tilt	pelvis_list	pelvis_rotation	pelvis_tx	pelvis_ty	pelvis_tz	hip_flexion_r	hip_adduction_r	hip_rotation_r	knee_angle_r	knee_angle_r_beta	ankle_angle_r	subtalar_angle_r	mtp_angle_r	hip_flexion_l	hip_adduction_l	hip_rotation_l	knee_angle_l	knee_angle_l_beta	ankle_angle_l	subtalar_angle_l	mtp_angle_l	lumbar_extension	lumbar_bending	lumbar_rotation	arm_flex_r	arm_add_r	arm_rot_r	elbow_flex_r	pro_sup_r	arm_flex_l	arm_add_l	arm_rot_l	elbow_flex_l	pro_sup_l
      4.10000000	     -2.73402427	     -4.62390554	     -6.72264470	      0.43691518	      0.87917305	     -0.02028224	     -2.70755583	     12.07850938	      0.86196371	      1.07580374	      0.01877632	     11.13097107	    -14.54467513	     -7.49999987	     31.60552258	    -14.69759460	     -5.37001017	     34.76248733	      0.60671986	     -7.66827305	    -33.96762351	     -7.49999987	      3.36102078	      4.83245138	     -8.29817765	     27.83165455	      9.98909210	     46.43842084	    122.53007450	    105.20128263	     48.82271875	     22.68289375	     70.18114269	    122.75209746	     91.22924220
      4.11666670	     -2.73912595	     -4.63430382	     -6.61799421	      0.43720086	      0.87918634	     -0.02043688	     -2.59660741	     12.05922323	      1.01541078	      1.30940878	      0.02285349	     11.12160322	    -14.79642570	     -7.49999987	     31.61447808	    -14.68447057	     -5.39942559	     34.70606094	      0.60573503	     -7.57371652	    -33.96590316	     -7.49999987	      3.42166778	      4.84573582	     -8.38120067	     27.76335481	      9.95264109	     46.38833957	    122.35786425	    105.20356779	     48.68918744	     22.61970555	     70.31299516	    122.75638455	     90.54407038
      4.13333330	     -2.66653522	     -4.73828280	     -6.59800163	      0.43723409	      0.87911986	     -0.02032117	     -2.63393485	     12.15414180	      0.87440473	      1.51821090	      0.02649778	     10.96276652	    -14.80036902	     -7.49999987	     31.62796304	    -14.72157365	     -5.21003011	     34.92155461	      0.60949611	     -7.68672030	    -33.97835960	     -7.49999987	      3.39079254	      4.96985208	     -8.50503023	     27.53920632	     10.01424013	     46.19281570	    122.20861396	    105.07822842	     48.61431281	     22.55807667	     70.16113822	    122.78552300	     91.34485932
      4.15000000	     -2.61250062	     -4.75937438	     -6.64748337	      0.43735110	      0.87905483	     -0.02041763	     -2.72012719	     12.15102593	      0.95666580	      1.48881462	      0.02598472	     10.97062582	    -14.82643355	     -7.49999987	     31.59457744	    -14.72597528	     -5.12052342	     35.01118964	      0.61106053	     -7.80793489	    -33.98763857	     -7.49999987	      3.31176832	      5.04733475	     -8.31675995	     27.76043116	      9.92939541	     46.11549306	    122.15772611	    104.84126243	     48.65779576	     22.66893280	     70.08175778	    122.81035085	     91.79586509
      4.16666670	     -2.60117577	     -4.89593354	     -6.66294040	      0.43751412	      0.87717357	     -0.02017061	     -2.75989681	     12.30644780	      0.97246964	      1.46815508	      0.02562414	     11.20181734	    -14.80938907	     -7.49999987	     31.74968281	    -14.84155833	     -4.87436352	     35.29394904	      0.61599562	     -7.70260137	    -34.03264303	     -7.49999987	      3.27314226	      5.23395174	     -8.23958472	     27.81829790	      9.83944306	     46.22203790	    122.13635842	    104.51737096	     48.71362499	     22.74550461	     70.09666069	    122.82504656	     92.22033263
      4.18333330	     -2.55812246	     -5.07589858	     -6.71875724	      0.43770643	      0.87739079	     -0.02025494	     -2.86836173	     12.50545534	      1.19673640	      1.41224582	      0.02464834	     11.31559284	    -14.97476958	     -7.49999987	     31.98013319	    -15.00966729	     -4.55438864	     35.74257414	      0.62382560	     -7.59195017	    -34.05733056	     -7.49999987	      3.25089783	      5.44844465	     -8.15891185	     27.72238672	      9.75594787	     46.00043294	    122.11841433	    104.91982443	     48.54983788	     22.77024109	     69.98695156	    122.77185436	     91.90607207
      4.20000000	     -2.67835405	     -5.19532383	     -6.82232078	      0.43762532	      0.87729083	     -0.02017822	     -2.84631899	     12.65639186	      1.60488409	      1.23438423	      0.02154407	     11.32516690	    -15.28430185	     -7.49999987	     32.26835068	    -15.12376324	     -4.12939601	     36.05997352	      0.62936527	     -7.30914357	    -34.07770553	     -7.49999987	      3.43031778	      5.60563223	     -7.99625057	     27.45487283	      9.73896266	     45.82810242	    122.06585101	    105.01664052	     48.27327065	     23.03077568	     70.08870299	    122.61590110	     91.76061223
      4.21666670	     -2.77557264	     -5.33134630	     -6.97109237	      0.43780316	      0.87708818	     -0.02022335	     -2.88854457	     12.81246992	      1.91688493	      1.08425754	      0.01892386	     11.19079841	    -15.52082418	     -7.49999987	     32.54705910	    -15.27068664	     -3.86358994	     36.38424241	      0.63502483	     -7.11311555	    -34.10746208	     -7.49999987	      3.58181284	      5.81546800	     -8.07933509	     27.27594271	      9.83113557	     45.71807937	    121.96701219	    104.62218920	     48.37941742	     23.07863687	     70.03778405	    122.53991511	     91.63343772
